<?xml version="1.0" encoding="UTF-8"?>
<svg id="Layer_1" data-name="Layer 1" xmlns="http://www.w3.org/2000/svg" xmlns:xlink="http://www.w3.org/1999/xlink" viewBox="0 0 500 500">
  <defs>
    <style>
      .cls-1 {
        fill: url(#linear-gradient);
      }
    </style>
    <linearGradient id="linear-gradient" x1="98.65" y1="98.65" x2="502.81" y2="502.81" gradientUnits="userSpaceOnUse">
      <stop offset="0" stop-color="#1867fe"/>
      <stop offset="1" stop-color="#8622ec"/>
    </linearGradient>
  </defs>
  <path class="cls-1" d="M249.94,44.57c-113.21,0-205.38,92.17-205.38,205.49s92.17,205.38,205.38,205.38,205.49-92.17,205.49-205.38S363.26,44.57,249.94,44.57ZM422.04,217.55l-141.59-81.71,60.78-35.18c41.41,25.38,71.46,67.57,80.81,116.88ZM307.05,211.99c0,10.46-8.46,19.04-19.04,19.04s-19.03-8.57-19.03-19.04,8.57-19.04,19.03-19.04,19.04,8.46,19.04,19.04ZM166.35,96.33c24.93-13.58,53.43-21.37,83.6-21.37,20.26,0,39.74,3.56,57.88,9.91l-141.48,81.7v-70.24ZM135.96,117.37v163.19l-60.89-35.18c1.34-51.09,24.71-96.84,60.89-128.01ZM77.96,282.23l64.12,37.07c.45.33.78.56,1.22.78q.11.11.22.22l76.03,43.86-60.89,35.06c-41.41-25.38-71.46-67.57-80.7-116.99ZM333.65,403.67c-24.93,13.58-53.43,21.37-83.71,21.37-20.26,0-39.74-3.45-57.88-9.91l65.12-37.62c.11,0,.22-.11.33-.11s.11-.11.11-.11l76.03-43.86v70.24ZM364.04,382.63v-163.3l60.89,35.06c-1.22,51.2-24.6,97.07-60.89,128.23ZM492.5,225.68C480.25,102.45,376.4,6.28,250.06,6.28,115.36,6.28,6.28,115.37,6.28,250.06c0,34.4,7.12,67.12,20.04,96.84,7.9,18.37,18.03,35.51,30.06,51.09,11.13,14.58,23.82,27.83,37.96,39.41,3.56,2.89,7.12,5.79,10.8,8.46,7.12,5.45,14.58,10.35,22.26,14.69.56.45,1.22.89,1.89,1.11,3.67,2.12,7.35,4.12,11.13,6.01,4.12,2.12,8.35,4.12,12.58,5.9,2,1,4.12,1.89,6.23,2.56,6.01,2.56,12.13,4.68,18.37,6.68,7.57,2.34,15.36,4.34,23.38,6.01,3.9.78,7.9,1.45,11.91,2.12,4.12.56,8.13,1.11,12.24,1.56,8.24.78,16.47,1.22,24.93,1.22,42.08,0,81.59-10.69,116.1-29.39,17.37-9.35,33.28-20.82,47.75-33.95,2.45-2.23,5.01-4.56,7.35-6.9.67-.67,1.22-1.22,1.78-1.89,2.56-2.45,5.01-5.01,7.35-7.68,2.67-2.89,5.23-5.79,7.68-8.79,19.93-24.16,35.18-52.1,44.75-82.6,7.12-22.93,10.91-47.2,10.91-72.47,0-8.24-.45-16.36-1.22-24.38ZM453.98,313.51c-8.35,26.72-21.71,51.2-39.18,72.47-2.12,2.56-4.45,5.12-6.79,7.68-2,2.34-4.12,4.56-6.35,6.68-.56.56-1,1.11-1.56,1.67-2.12,2-4.34,4.12-6.46,6.01-12.69,11.58-26.6,21.6-41.85,29.83-30.28,16.36-64.9,25.71-101.74,25.71-7.46,0-14.58-.45-21.82-1.11-3.67-.33-7.12-.89-10.8-1.34-3.45-.56-7.01-1.11-10.35-1.89-7.12-1.45-13.91-3.12-20.48-5.23-5.57-1.78-10.91-3.56-16.14-5.79-1.89-.67-3.67-1.45-5.45-2.34-3.67-1.56-7.46-3.23-11.02-5.12-3.34-1.67-6.57-3.45-9.8-5.23-.56-.22-1.11-.67-1.67-1-6.68-3.78-13.25-8.13-19.48-12.91-3.23-2.34-6.35-4.9-9.46-7.35-12.36-10.24-23.49-21.82-33.28-34.62-10.46-13.58-19.37-28.61-26.27-44.75-11.35-26.05-17.59-54.66-17.59-84.82,0-117.99,95.62-213.61,213.61-213.61,110.65,0,201.7,84.27,212.39,192.24.67,7.01,1.11,14.14,1.11,21.37,0,22.15-3.34,43.41-9.57,63.45Z"/>
</svg>