<?xml version="1.0" encoding="UTF-8"?>
<svg id="Layer_1" data-name="Layer 1" xmlns="http://www.w3.org/2000/svg" viewBox="0 0 500 500">
  <defs>
    <style>
      .cls-1 {
        fill: #fe0;
      }
    </style>
  </defs>
  <path class="cls-1" d="M185.12,71l56.33,119.81c.15.31.4.56.71.71l119.81,56.33c1.13.53,1.13,2.15,0,2.68l-119.81,56.33c-.31.15-.56.4-.71.71l-56.33,119.81c-.53,1.13-2.15,1.13-2.68,0l-56.33-119.81c-.15-.31-.4-.56-.71-.71L5.6,250.52c-1.13-.53-1.13-2.15,0-2.68l119.81-56.33c.31-.15.56-.4.71-.71l56.33-119.81c.53-1.13,2.15-1.13,2.68,0Z"/>
  <path class="cls-1" d="M410.2,6.41l26.7,56.79c.15.31.4.56.71.71l56.79,26.7c1.13.53,1.13,2.15,0,2.68l-56.79,26.7c-.31.15-.56.4-.71.71l-26.7,56.79c-.53,1.13-2.15,1.13-2.68,0l-26.7-56.79c-.15-.31-.4-.56-.71-.71l-56.79-26.7c-1.13-.53-1.13-2.15,0-2.68l56.79-26.7c.31-.15.56-.4.71-.71l26.7-56.79c.53-1.13,2.15-1.13,2.68,0Z"/>
  <path class="cls-1" d="M410.2,322.49l26.7,56.79c.15.31.4.56.71.71l56.79,26.7c1.13.53,1.13,2.15,0,2.68l-56.79,26.7c-.31.15-.56.4-.71.71l-26.7,56.79c-.53,1.13-2.15,1.13-2.68,0l-26.7-56.79c-.15-.31-.4-.56-.71-.71l-56.79-26.7c-1.13-.53-1.13-2.15,0-2.68l56.79-26.7c.31-.15.56-.4.71-.71l26.7-56.79c.53-1.13,2.15-1.13,2.68,0Z"/>
</svg>